<svg width="20" height="21" viewBox="0 0 20 21" fill="none" xmlns="http://www.w3.org/2000/svg">
<path d="M6.4 1.43051H2.6C2.03995 1.43051 1.75992 1.43051 1.54601 1.5395C1.35785 1.63538 1.20487 1.78836 1.10899 1.97652C1 2.19043 1 2.47046 1 3.03051V6.83051C1 7.39056 1 7.67059 1.10899 7.8845C1.20487 8.07266 1.35785 8.22564 1.54601 8.32152C1.75992 8.43051 2.03995 8.43051 2.6 8.43051H6.4C6.96005 8.43051 7.24008 8.43051 7.45399 8.32152C7.64215 8.22564 7.79513 8.07266 7.89101 7.8845C8 7.67059 8 7.39056 8 6.83051V3.03051C8 2.47046 8 2.19043 7.89101 1.97652C7.79513 1.78836 7.64215 1.63538 7.45399 1.5395C7.24008 1.43051 6.96005 1.43051 6.4 1.43051Z" stroke="#FCFCFC" stroke-width="2" stroke-linecap="round" stroke-linejoin="round"/>
<path d="M17.4 1.43051H13.6C13.0399 1.43051 12.7599 1.43051 12.546 1.5395C12.3578 1.63538 12.2049 1.78836 12.109 1.97652C12 2.19043 12 2.47046 12 3.03051V6.83051C12 7.39056 12 7.67059 12.109 7.8845C12.2049 8.07266 12.3578 8.22564 12.546 8.32152C12.7599 8.43051 13.0399 8.43051 13.6 8.43051H17.4C17.9601 8.43051 18.2401 8.43051 18.454 8.32152C18.6422 8.22564 18.7951 8.07266 18.891 7.8845C19 7.67059 19 7.39056 19 6.83051V3.03051C19 2.47046 19 2.19043 18.891 1.97652C18.7951 1.78836 18.6422 1.63538 18.454 1.5395C18.2401 1.43051 17.9601 1.43051 17.4 1.43051Z" stroke="#FCFCFC" stroke-width="2" stroke-linecap="round" stroke-linejoin="round"/>
<path d="M17.4 12.4305H13.6C13.0399 12.4305 12.7599 12.4305 12.546 12.5395C12.3578 12.6354 12.2049 12.7884 12.109 12.9765C12 13.1904 12 13.4705 12 14.0305V17.8305C12 18.3906 12 18.6706 12.109 18.8845C12.2049 19.0727 12.3578 19.2256 12.546 19.3215C12.7599 19.4305 13.0399 19.4305 13.6 19.4305H17.4C17.9601 19.4305 18.2401 19.4305 18.454 19.3215C18.6422 19.2256 18.7951 19.0727 18.891 18.8845C19 18.6706 19 18.3906 19 17.8305V14.0305C19 13.4705 19 13.1904 18.891 12.9765C18.7951 12.7884 18.6422 12.6354 18.454 12.5395C18.2401 12.4305 17.9601 12.4305 17.4 12.4305Z" stroke="#FCFCFC" stroke-width="2" stroke-linecap="round" stroke-linejoin="round"/>
<path d="M6.4 12.4305H2.6C2.03995 12.4305 1.75992 12.4305 1.54601 12.5395C1.35785 12.6354 1.20487 12.7884 1.10899 12.9765C1 13.1904 1 13.4705 1 14.0305V17.8305C1 18.3906 1 18.6706 1.10899 18.8845C1.20487 19.0727 1.35785 19.2256 1.54601 19.3215C1.75992 19.4305 2.03995 19.4305 2.6 19.4305H6.4C6.96005 19.4305 7.24008 19.4305 7.45399 19.3215C7.64215 19.2256 7.79513 19.0727 7.89101 18.8845C8 18.6706 8 18.3906 8 17.8305V14.0305C8 13.4705 8 13.1904 7.89101 12.9765C7.79513 12.7884 7.64215 12.6354 7.45399 12.5395C7.24008 12.4305 6.96005 12.4305 6.4 12.4305Z" stroke="#FCFCFC" stroke-width="2" stroke-linecap="round" stroke-linejoin="round"/>
</svg>
